<?xml version="1.0" encoding="utf-8"?>
<COLLADA xmlns="http://www.collada.org/2005/11/COLLADASchema" version="1.4.1" xmlns:xsi="http://www.w3.org/2001/XMLSchema-instance">
  <asset>
    <contributor>
      <author>Blender User</author>
      <authoring_tool>Blender 4.3.2 commit date:2024-12-16, commit time:21:10, hash:32f5fdce0a0a</authoring_tool>
    </contributor>
    <created>2026-01-22T15:30:04</created>
    <modified>2026-01-22T15:30:04</modified>
    <unit name="meter" meter="1"/>
    <up_axis>Z_UP</up_axis>
  </asset>
  <library_images/>
  <library_geometries>
    <geometry id="Cube_022-mesh" name="Cube_022">
      <mesh>
        <source id="Cube_022-mesh-positions">
          <float_array id="Cube_022-mesh-positions-array" count="120">-2.617145 -0.018651 -2.04785 -2.617145 -0.018651 1.24253 -2.617145 0.01865077 -2.04785 -2.617145 0.01865077 1.24253 -0.3946111 -0.018651 -2.04785 -0.3946111 -0.018651 1.24253 -0.3946111 0.01865077 -2.04785 -0.3946111 0.01865077 1.24253 -2.617145 -0.018651 0.797183 -2.617145 0.01865077 0.797183 -0.3946111 0.01865077 0.797183 -0.3946111 -0.018651 0.797183 1.393306 0.01865077 1.24253 1.393306 -0.018651 1.24253 1.393306 0.01865077 0.797183 1.393306 -0.018651 0.797183 1.61845 0.01865077 1.24253 1.61845 -0.018651 1.24253 1.61845 0.01865077 0.797183 1.61845 -0.018651 0.797183 1.393306 0.01865077 -2.031574 1.393306 -0.018651 -2.031574 1.61845 0.01865077 -2.031574 1.61845 -0.018651 -2.031574 -2.549831 -0.015383 -2.06141 -2.549831 -0.01538354 1.251011 -2.549831 0.2157366 -2.06141 -2.549831 0.215736 1.251011 -2.62708 -0.015383 -2.06141 -2.62708 -0.01538354 1.251011 -2.62708 0.2157366 -2.06141 -2.62708 0.215736 1.251011 -2.614454 0.2018282 -2.062483 -2.614454 0.2018277 1.243818 -2.614454 0.2286386 -2.062483 -2.614454 0.2286381 1.243818 -0.5157974 0.2018282 -2.062483 -0.5157974 0.2018277 1.243818 -0.5157974 0.2286386 -2.062483 -0.5157974 0.2286381 1.243818</float_array>
          <technique_common>
            <accessor source="#Cube_022-mesh-positions-array" count="40" stride="3">
              <param name="X" type="float"/>
              <param name="Y" type="float"/>
              <param name="Z" type="float"/>
            </accessor>
          </technique_common>
        </source>
        <source id="Cube_022-mesh-normals">
          <float_array id="Cube_022-mesh-normals-array" count="30">-1 0 0 0 1 0 0 -1 0 0 0 -1 0 0 1 1 0 0 0 -1 -1.60146e-7 0 1 1.61966e-7 0 1 1.63211e-7 0 -1 -1.63211e-7</float_array>
          <technique_common>
            <accessor source="#Cube_022-mesh-normals-array" count="10" stride="3">
              <param name="X" type="float"/>
              <param name="Y" type="float"/>
              <param name="Z" type="float"/>
            </accessor>
          </technique_common>
        </source>
        <source id="Cube_022-mesh-map-0">
          <float_array id="Cube_022-mesh-map-0-array" count="408">-0.2280665 0.9767708 1.228067 0.7796856 -0.2280665 0.7796856 -1.244411 0.9767708 0.2117218 0.7796856 -1.244411 0.7796856 0.2117218 0.9767708 1.383108 0.7796856 0.2117218 0.7796856 0.2117218 0.9767708 -1.244411 0.7796856 0.2117218 0.7796856 0.2117218 1.228067 -1.244411 -0.2280665 -1.244411 1.228067 -1.244411 1.228067 0.2117218 -0.2280665 0.2117218 1.228067 0.2117218 0.7796856 -1.244411 -0.4793623 0.2117218 -0.4793623 1.228067 0.7796856 -0.2280665 -0.4793623 1.228067 -0.4793623 -1.244411 0.7796856 0.2117218 -0.4793623 -1.244411 -0.4793623 -0.2280665 0.7796856 1.228067 -0.4793623 -0.2280665 -0.4793623 1.383108 -0.2280665 1.530615 1.228067 1.383108 1.228067 0.2117218 -0.2280665 1.383108 1.228067 0.2117218 1.228067 0.2117218 1.228067 1.383108 -0.2280665 0.2117218 -0.2280665 0.2117218 0.7796856 1.383108 0.9767708 0.2117218 0.9767708 1.228067 0.9767708 -0.2280665 0.7796856 1.228067 0.7796856 -0.2280665 0.7796856 1.228067 -0.4721598 1.228067 0.7796856 1.383108 0.9767708 1.530615 0.7796856 1.383108 0.7796856 1.383108 0.7796856 1.530615 0.9767708 1.383108 0.9767708 1.383108 1.228067 1.530615 -0.2280665 1.383108 -0.2280665 1.228067 0.7796856 -0.2280665 -0.4721598 -0.2280665 0.7796856 1.530615 0.7796856 1.383108 -0.4721598 1.383108 0.7796856 1.383108 0.7796856 1.530615 -0.4721598 1.530615 0.7796856 0 0 0 0 0 0 0 0 0 0 0 0 0 0 0 0 0 0 0 0 0 0 0 0 0 0 0 0 0 0 0 0 0 0 0 0 0 0 0 0 0 0 0 0 0 0 0 0 0 0 0 0 0 0 0 0 0 0 0 0 0 0 0 0 0 0 0 0 0 0 0 0 -0.2280665 0.9767708 1.228067 0.9767708 1.228067 0.7796856 -1.244411 0.9767708 0.2117218 0.9767708 0.2117218 0.7796856 0.2117218 0.9767708 1.383108 0.9767708 1.383108 0.7796856 0.2117218 0.9767708 -1.244411 0.9767708 -1.244411 0.7796856 0.2117218 1.228067 0.2117218 -0.2280665 -1.244411 -0.2280665 -1.244411 1.228067 -1.244411 -0.2280665 0.2117218 -0.2280665 0.2117218 0.7796856 -1.244411 0.7796856 -1.244411 -0.4793623 1.228067 0.7796856 -0.2280665 0.7796856 -0.2280665 -0.4793623 -1.244411 0.7796856 0.2117218 0.7796856 0.2117218 -0.4793623 -0.2280665 0.7796856 1.228067 0.7796856 1.228067 -0.4793623 1.383108 -0.2280665 1.530615 -0.2280665 1.530615 1.228067 0.2117218 -0.2280665 1.383108 -0.2280665 1.383108 1.228067 0.2117218 1.228067 1.383108 1.228067 1.383108 -0.2280665 0.2117218 0.7796856 1.383108 0.7796856 1.383108 0.9767708 1.228067 0.9767708 -0.2280665 0.9767708 -0.2280665 0.7796856 -0.2280665 0.7796856 -0.2280665 -0.4721598 1.228067 -0.4721598 1.383108 0.9767708 1.530615 0.9767708 1.530615 0.7796856 1.383108 0.7796856 1.530615 0.7796856 1.530615 0.9767708 1.383108 1.228067 1.530615 1.228067 1.530615 -0.2280665 1.228067 0.7796856 1.228067 -0.4721598 -0.2280665 -0.4721598 1.530615 0.7796856 1.530615 -0.4721598 1.383108 -0.4721598 1.383108 0.7796856 1.383108 -0.4721598 1.530615 -0.4721598 0 0 0 0 0 0 0 0 0 0 0 0 0 0 0 0 0 0 0 0 0 0 0 0 0 0 0 0 0 0 0 0 0 0 0 0 0 0 0 0 0 0 0 0 0 0 0 0 0 0 0 0 0 0 0 0 0 0 0 0 0 0 0 0 0 0 0 0 0 0 0 0</float_array>
          <technique_common>
            <accessor source="#Cube_022-mesh-map-0-array" count="204" stride="2">
              <param name="S" type="float"/>
              <param name="T" type="float"/>
            </accessor>
          </technique_common>
        </source>
        <source id="Cube_022-mesh-map-1">
          <float_array id="Cube_022-mesh-map-1-array" count="408">0 0 0 0 0 0 0 0 0 0 0 0 0 0 0 0 0 0 0 0 0 0 0 0 0 0 0 0 0 0 0 0 0 0 0 0 0 0 0 0 0 0 0 0 0 0 0 0 0 0 0 0 0 0 0 0 0 0 0 0 0 0 0 0 0 0 0 0 0 0 0 0 0 0 0 0 0 0 0 0 0 0 0 0 0 0 0 0 0 0 0 0 0 0 0 0 0 0 0 0 0 0 0 0 0 0 0 0 0 0 0 0 0 0 0 0 0 0 0 0 0 0 0 0 0 0 0 0 0 0 0 0 0.625 0 0.375 0.25 0.375 0 0.625 0.25 0.375 0.5 0.375 0.25 0.625 0.5 0.375 0.75 0.375 0.5 0.625 0.75 0.375 1 0.375 0.75 0.375 0.5 0.125 0.75 0.125 0.5 0.875 0.5 0.625 0.75 0.625 0.5 0.625 0 0.375 0.25 0.375 0 0.625 0.25 0.375 0.5 0.375 0.25 0.625 0.5 0.375 0.75 0.375 0.5 0.625 0.75 0.375 1 0.375 0.75 0.375 0.5 0.125 0.75 0.125 0.5 0.875 0.5 0.625 0.75 0.625 0.5 0 0 0 0 0 0 0 0 0 0 0 0 0 0 0 0 0 0 0 0 0 0 0 0 0 0 0 0 0 0 0 0 0 0 0 0 0 0 0 0 0 0 0 0 0 0 0 0 0 0 0 0 0 0 0 0 0 0 0 0 0 0 0 0 0 0 0 0 0 0 0 0 0 0 0 0 0 0 0 0 0 0 0 0 0 0 0 0 0 0 0 0 0 0 0 0 0 0 0 0 0 0 0 0 0 0 0 0 0 0 0 0 0 0 0 0 0 0 0 0 0 0 0 0 0 0 0 0 0 0 0 0 0.625 0 0.625 0.25 0.375 0.25 0.625 0.25 0.625 0.5 0.375 0.5 0.625 0.5 0.625 0.75 0.375 0.75 0.625 0.75 0.625 1 0.375 1 0.375 0.5 0.375 0.75 0.125 0.75 0.875 0.5 0.875 0.75 0.625 0.75 0.625 0 0.625 0.25 0.375 0.25 0.625 0.25 0.625 0.5 0.375 0.5 0.625 0.5 0.625 0.75 0.375 0.75 0.625 0.75 0.625 1 0.375 1 0.375 0.5 0.375 0.75 0.125 0.75 0.875 0.5 0.875 0.75 0.625 0.75</float_array>
          <technique_common>
            <accessor source="#Cube_022-mesh-map-1-array" count="204" stride="2">
              <param name="S" type="float"/>
              <param name="T" type="float"/>
            </accessor>
          </technique_common>
        </source>
        <vertices id="Cube_022-mesh-vertices">
          <input semantic="POSITION" source="#Cube_022-mesh-positions"/>
        </vertices>
        <triangles count="68">
          <input semantic="VERTEX" source="#Cube_022-mesh-vertices" offset="0"/>
          <input semantic="NORMAL" source="#Cube_022-mesh-normals" offset="1"/>
          <input semantic="TEXCOORD" source="#Cube_022-mesh-map-0" offset="2" set="0"/>
          <input semantic="TEXCOORD" source="#Cube_022-mesh-map-1" offset="2" set="1"/>
          <p>1 0 0 9 0 1 8 0 2 3 1 3 10 1 4 9 1 5 7 1 6 14 1 7 10 1 8 5 2 9 8 2 10 11 2 11 6 3 12 0 3 13 2 3 14 3 4 15 5 4 16 7 4 17 11 2 18 0 2 19 4 2 20 10 5 21 4 5 22 6 5 23 9 1 24 6 1 25 2 1 26 8 0 27 2 0 28 0 0 29 13 4 30 16 4 31 12 4 32 5 4 33 12 4 34 7 4 35 10 3 36 15 3 37 11 3 38 11 2 39 13 2 40 5 2 41 16 5 42 19 5 43 18 5 44 19 5 45 22 5 46 18 5 47 12 1 48 18 1 49 14 1 50 15 2 51 17 2 52 13 2 53 20 3 54 23 3 55 21 3 56 14 0 57 21 0 58 15 0 59 18 1 60 20 1 61 14 1 62 15 2 63 23 2 64 19 2 65 25 0 66 26 0 67 24 0 68 27 6 69 30 6 70 26 6 71 31 5 72 28 5 73 30 5 74 29 7 75 24 7 76 28 7 77 30 4 78 24 4 79 26 4 80 27 3 81 29 3 82 31 3 83 33 0 84 34 0 85 32 0 86 35 8 87 38 8 88 34 8 89 39 5 90 36 5 91 38 5 92 37 9 93 32 9 94 36 9 95 38 3 96 32 3 97 34 3 98 35 4 99 37 4 100 39 4 101 1 0 102 3 0 103 9 0 104 3 1 105 7 1 106 10 1 107 7 1 108 12 1 109 14 1 110 5 2 111 1 2 112 8 2 113 6 3 114 4 3 115 0 3 116 3 4 117 1 4 118 5 4 119 11 2 120 8 2 121 0 2 122 10 5 123 11 5 124 4 5 125 9 1 126 10 1 127 6 1 128 8 0 129 9 0 130 2 0 131 13 4 132 17 4 133 16 4 134 5 4 135 13 4 136 12 4 137 10 3 138 14 3 139 15 3 140 11 2 141 15 2 142 13 2 143 16 5 144 17 5 145 19 5 146 19 5 147 23 5 148 22 5 149 12 1 150 16 1 151 18 1 152 15 2 153 19 2 154 17 2 155 20 3 156 22 3 157 23 3 158 14 0 159 20 0 160 21 0 161 18 1 162 22 1 163 20 1 164 15 2 165 21 2 166 23 2 167 25 0 168 27 0 169 26 0 170 27 6 171 31 6 172 30 6 173 31 5 174 29 5 175 28 5 176 29 7 177 25 7 178 24 7 179 30 4 180 28 4 181 24 4 182 27 3 183 25 3 184 29 3 185 33 0 186 35 0 187 34 0 188 35 8 189 39 8 190 38 8 191 39 5 192 37 5 193 36 5 194 37 9 195 33 9 196 32 9 197 38 3 198 36 3 199 32 3 200 35 4 201 33 4 202 37 4 203</p>
        </triangles>
      </mesh>
    </geometry>
  </library_geometries>
  <library_visual_scenes>
    <visual_scene id="Scene" name="Scene">
      <node id="Cube_022" name="Cube_022" type="NODE">
        <matrix sid="transform">1 0 0 -0.4061765 0 1 1.62921e-7 0 0 -1.62921e-7 1 1.96689 0 0 0 1</matrix>
        <instance_geometry url="#Cube_022-mesh" name="Cube_022"/>
      </node>
    </visual_scene>
  </library_visual_scenes>
  <scene>
    <instance_visual_scene url="#Scene"/>
  </scene>
</COLLADA>